<svg xmlns="http://www.w3.org/2000/svg" version="1.1" xmlns:xlink="http://www.w3.org/1999/xlink" xmlns:svgjs="http://svgjs.com/svgjs" width="1440" height="560" preserveAspectRatio="none" viewBox="0 0 1440 560"><g mask="url(&quot;#SvgjsMask1005&quot;)" fill="none"><rect width="1440" height="560" x="0" y="0" fill="#0e2a47"></rect><g transform="translate(0, 0)" stroke-linecap="round"><path d="M260 184.23 L260 375.77" stroke-width="15" stroke="#3a7cc3"></path><path d="M280 213.79 L280 346.21" stroke-width="15" stroke="#dd1133"></path><path d="M300 227.76 L300 332.24" stroke-width="15" stroke="#3a7cc3"></path><path d="M320 115.6 L320 444.4" stroke-width="15" stroke="#dd1133"></path><path d="M340 181.69 L340 378.31" stroke-width="15" stroke="#3a7cc3"></path><path d="M360 135.93 L360 424.07" stroke-width="15" stroke="#3a7cc3"></path><path d="M380 171.71 L380 388.29" stroke-width="15" stroke="#dd1133"></path><path d="M400 157.78 L400 402.22" stroke-width="15" stroke="#dd1133"></path><path d="M420 115.75 L420 444.25" stroke-width="15" stroke="#dd1133"></path><path d="M440 116.66 L440 443.34" stroke-width="15" stroke="#3a7cc3"></path><path d="M460 252.83 L460 307.17" stroke-width="15" stroke="#dd1133"></path><path d="M480 158.61 L480 401.39" stroke-width="15" stroke="#3a7cc3"></path><path d="M500 194.18 L500 365.82" stroke-width="15" stroke="#3a7cc3"></path><path d="M520 250.81 L520 309.19" stroke-width="15" stroke="#3a7cc3"></path><path d="M540 170.38 L540 389.62" stroke-width="15" stroke="#dd1133"></path><path d="M560 110.85 L560 449.14" stroke-width="15" stroke="#3a7cc3"></path><path d="M580 116.47 L580 443.52" stroke-width="15" stroke="#3a7cc3"></path><path d="M600 233.48 L600 326.52" stroke-width="15" stroke="#dd1133"></path><path d="M620 141.06 L620 418.94" stroke-width="15" stroke="#3a7cc3"></path><path d="M640 130.88 L640 429.13" stroke-width="15" stroke="#3a7cc3"></path><path d="M660 199.55 L660 360.45" stroke-width="15" stroke="#3a7cc3"></path><path d="M680 134.09 L680 425.91" stroke-width="15" stroke="#dd1133"></path><path d="M700 158.56 L700 401.44" stroke-width="15" stroke="#3a7cc3"></path><path d="M720 251.31 L720 308.69" stroke-width="15" stroke="#3a7cc3"></path><path d="M740 216.51 L740 343.49" stroke-width="15" stroke="#dd1133"></path><path d="M760 230.78 L760 329.22" stroke-width="15" stroke="#3a7cc3"></path><path d="M780 130.95 L780 429.05" stroke-width="15" stroke="#dd1133"></path><path d="M800 246.7 L800 313.3" stroke-width="15" stroke="#3a7cc3"></path><path d="M820 130.71 L820 429.29" stroke-width="15" stroke="#dd1133"></path><path d="M840 192.75 L840 367.25" stroke-width="15" stroke="#dd1133"></path><path d="M860 256.6 L860 303.4" stroke-width="15" stroke="#dd1133"></path><path d="M880 234.31 L880 325.69" stroke-width="15" stroke="#3a7cc3"></path><path d="M900 111.71 L900 448.29" stroke-width="15" stroke="#3a7cc3"></path><path d="M920 234.34 L920 325.65" stroke-width="15" stroke="#3a7cc3"></path><path d="M940 230.44 L940 329.56" stroke-width="15" stroke="#dd1133"></path><path d="M960 183.72 L960 376.28" stroke-width="15" stroke="#3a7cc3"></path><path d="M980 109.58 L980 450.42" stroke-width="15" stroke="#3a7cc3"></path><path d="M1000 129.36 L1000 430.64" stroke-width="15" stroke="#3a7cc3"></path><path d="M1020 253.38 L1020 306.62" stroke-width="15" stroke="#dd1133"></path><path d="M1040 150.81 L1040 409.19" stroke-width="15" stroke="#dd1133"></path><path d="M1060 196.81 L1060 363.19" stroke-width="15" stroke="#dd1133"></path><path d="M1080 168.82 L1080 391.18" stroke-width="15" stroke="#dd1133"></path><path d="M1100 171.99 L1100 388.01" stroke-width="15" stroke="#dd1133"></path><path d="M1120 136.16 L1120 423.84" stroke-width="15" stroke="#3a7cc3"></path><path d="M1140 238.32 L1140 321.68" stroke-width="15" stroke="#dd1133"></path><path d="M1160 236.14 L1160 323.86" stroke-width="15" stroke="#dd1133"></path><path d="M1180 212.83 L1180 347.17" stroke-width="15" stroke="#dd1133"></path></g></g><defs><mask id="SvgjsMask1005"><rect width="1440" height="560" fill="#ffffff"></rect></mask></defs></svg>